<svg xmlns="http://www.w3.org/2000/svg" width="1800" height="1100" viewBox="0 0 1800 1100">
<rect width="1800" height="1100" fill="#ffffff"/>
<text x="900" y="70" font-family="Arial" font-size="40" font-weight="700" fill="#1c2731" text-anchor="middle">Сравнение качества ответа различных стратегий реранкинга</text>
<line x1="190" y1="890" x2="1590" y2="890" stroke="#e9eef1" stroke-width="2"/>
<text x="140" y="897" font-family="Arial" font-size="22" font-weight="400" fill="#5b6977" text-anchor="middle">0.00</text>
<line x1="190" y1="657" x2="1590" y2="657" stroke="#e9eef1" stroke-width="2"/>
<text x="140" y="664" font-family="Arial" font-size="22" font-weight="400" fill="#5b6977" text-anchor="middle">0.25</text>
<line x1="190" y1="424" x2="1590" y2="424" stroke="#e9eef1" stroke-width="2"/>
<text x="140" y="431" font-family="Arial" font-size="22" font-weight="400" fill="#5b6977" text-anchor="middle">0.50</text>
<line x1="190" y1="190" x2="1590" y2="190" stroke="#e9eef1" stroke-width="2"/>
<text x="140" y="197" font-family="Arial" font-size="22" font-weight="400" fill="#5b6977" text-anchor="middle">0.75</text>
<line x1="190" y1="890" x2="1590" y2="890" stroke="#1c2731" stroke-width="3"/>
<line x1="190" y1="190" x2="190" y2="890" stroke="#1c2731" stroke-width="3"/>
<rect x="310" y="257" width="190" height="633" fill="#1a569c"/>
<text x="405" y="229" font-family="Arial" font-size="25" font-weight="700" fill="#1c2731" text-anchor="middle">0.6784</text>
<text x="405" y="935" font-family="Arial" font-size="22" font-weight="400" fill="#1c2731" text-anchor="middle">No</text>
<text x="405" y="963" font-family="Arial" font-size="22" font-weight="400" fill="#1c2731" text-anchor="middle">Reranker</text>
<rect x="640" y="377" width="190" height="513" fill="#5b6977"/>
<text x="735" y="349" font-family="Arial" font-size="25" font-weight="700" fill="#1c2731" text-anchor="middle">0.5497</text>
<text x="735" y="935" font-family="Arial" font-size="22" font-weight="400" fill="#1c2731" text-anchor="middle">Text</text>
<text x="735" y="963" font-family="Arial" font-size="22" font-weight="400" fill="#1c2731" text-anchor="middle">Reranker</text>
<rect x="970" y="235" width="190" height="655" fill="#007934"/>
<text x="1065" y="207" font-family="Arial" font-size="25" font-weight="700" fill="#1c2731" text-anchor="middle">0.7023</text>
<text x="1065" y="935" font-family="Arial" font-size="22" font-weight="400" fill="#1c2731" text-anchor="middle">Multimodal</text>
<text x="1065" y="963" font-family="Arial" font-size="22" font-weight="400" fill="#1c2731" text-anchor="middle">Reranker</text>
<rect x="1300" y="236" width="190" height="654" fill="#de7626"/>
<text x="1395" y="208" font-family="Arial" font-size="25" font-weight="700" fill="#1c2731" text-anchor="middle">0.7009</text>
<text x="1395" y="935" font-family="Arial" font-size="22" font-weight="400" fill="#1c2731" text-anchor="middle">Adaptive</text>
<text x="1395" y="963" font-family="Arial" font-size="22" font-weight="400" fill="#1c2731" text-anchor="middle">Reranking</text>
<text x="75" y="540" font-family="Arial" font-size="27" font-weight="700" fill="#1c2731" text-anchor="middle">Mean F1</text>
</svg>
